<?xml version="1.0" standalone="no"?>
<!DOCTYPE svg PUBLIC "-//W3C//DTD SVG 20010904//EN"
 "http://www.w3.org/TR/2001/REC-SVG-20010904/DTD/svg10.dtd">
<svg version="1.0" xmlns="http://www.w3.org/2000/svg"
 width="366.000000pt" height="366.000000pt" viewBox="0 0 366.000000 366.000000"
 preserveAspectRatio="xMidYMid meet">
<metadata>
Created by potrace 1.14, written by Peter Selinger 2001-2017
</metadata>
<g transform="translate(0.000000,366.000000) scale(0.100000,-0.100000)"
fill="#000000" stroke="none">
<path d="M1520 2772 c-41 -3 -50 -6 -35 -12 15 -7 10 -9 -22 -9 -23 -1 -62
-10 -87 -20 -36 -16 -44 -17 -39 -5 4 11 -11 7 -51 -13 -31 -15 -53 -29 -47
-31 5 -2 20 2 32 9 17 9 24 9 27 0 5 -14 37 -14 65 0 16 9 42 8 114 -7 l93
-18 70 23 c38 12 70 26 70 31 0 14 -40 22 -83 16 -23 -3 -60 -1 -82 3 -34 7
-26 9 45 9 47 0 98 4 114 8 20 5 27 4 22 -4 -4 -7 14 -17 51 -27 32 -9 63 -18
69 -20 6 -2 19 -33 29 -69 10 -36 21 -66 25 -66 4 0 13 11 20 25 7 14 21 25
31 25 9 0 19 5 21 10 4 14 82 -105 95 -145 5 -16 17 -31 26 -33 28 -6 21 37
-23 144 -47 115 -108 191 -111 137 0 -12 -4 -9 -10 8 -8 22 -18 28 -56 33 -25
3 -60 6 -77 5 -26 0 -28 -2 -11 -9 17 -7 15 -9 -12 -9 -18 -1 -33 4 -33 9 0
10 -124 11 -240 2z m394 -72 l6 -35 -14 35 c-17 42 -20 58 -7 45 5 -6 12 -26
15 -45z m53 -22 c-3 -8 -6 -5 -6 6 -1 11 2 17 5 13 3 -3 4 -12 1 -19z"/>
<path d="M1693 2690 c-29 -12 -29 -21 0 -48 16 -16 36 -22 66 -22 l42 0 34
-72 33 -73 12 30 c13 33 3 91 -28 155 -16 34 -19 35 -77 37 -33 1 -70 -2 -82
-7z"/>
<path d="M1293 2647 c-48 -24 -62 -37 -60 -52 3 -26 38 -31 71 -10 24 16 29
16 103 -9 43 -14 89 -26 102 -26 38 0 141 50 141 69 0 37 -42 52 -79 29 -15
-9 -35 -7 -99 10 -44 12 -88 22 -98 21 -11 0 -47 -15 -81 -32z"/>
<path d="M1172 2637 c-38 -39 -40 -47 -9 -47 24 0 107 55 107 71 0 5 -15 9
-33 9 -24 0 -42 -9 -65 -33z"/>
<path d="M1658 2579 c-45 -23 -47 -37 -10 -71 19 -19 40 -28 72 -30 42 -3 47
-6 70 -50 35 -64 36 -65 52 -16 14 40 13 47 -7 96 -27 67 -40 78 -95 86 -34 4
-54 0 -82 -15z"/>
<path d="M1102 2535 c-28 -57 -28 -75 -1 -75 27 0 109 59 109 78 0 21 -30 41
-61 42 -20 0 -29 -9 -47 -45z"/>
<path d="M1232 2519 c-64 -51 -73 -72 -39 -93 13 -8 24 -7 48 7 42 23 45 23
138 -23 44 -22 86 -40 92 -40 18 0 139 91 139 104 0 18 -33 46 -53 46 -9 0
-27 -5 -40 -11 -19 -9 -39 -4 -112 25 -49 20 -94 36 -99 36 -6 -1 -39 -23 -74
-51z"/>
<path d="M1618 2424 c-21 -15 -38 -33 -38 -41 0 -8 12 -30 28 -49 24 -30 32
-34 74 -34 43 0 50 -4 79 -40 18 -22 36 -40 40 -40 3 0 10 25 14 55 6 48 3 60
-22 105 -29 52 -33 55 -98 65 -33 5 -46 1 -77 -21z"/>
<path d="M1073 2423 c-24 -12 -33 -25 -38 -52 -3 -20 -9 -46 -12 -58 -8 -36
34 -29 89 15 53 42 58 59 25 90 -27 25 -23 25 -64 5z"/>
<path d="M1175 2346 c-57 -51 -59 -55 -47 -80 16 -37 39 -43 66 -17 12 11 30
21 40 21 10 0 55 -22 101 -50 46 -27 91 -50 102 -50 19 0 143 94 143 109 0 17
-42 61 -59 61 -9 0 -26 -7 -38 -15 -21 -15 -28 -13 -112 30 -50 25 -101 45
-113 45 -13 0 -48 -23 -83 -54z"/>
<path d="M1034 2245 c-27 -11 -32 -20 -38 -61 -4 -27 -10 -59 -13 -71 -5 -21
-1 -23 30 -23 30 0 41 7 72 45 40 48 40 67 2 103 -20 18 -25 19 -53 7z"/>
<path d="M1661 2253 c-47 -6 -111 -50 -111 -77 0 -12 15 -36 33 -54 29 -28 40
-32 88 -32 46 0 59 -4 79 -25 13 -14 27 -22 31 -18 3 5 10 36 13 70 7 61 7 61
-32 102 -21 23 -45 40 -53 39 -8 0 -29 -3 -48 -5z"/>
<path d="M222 2225 c-7 -14 -12 -28 -12 -31 0 -2 172 -3 383 -2 l382 3 3 28 3
27 -374 0 -374 0 -11 -25z"/>
<path d="M1142 2147 c-55 -56 -64 -83 -34 -110 23 -21 46 -22 62 -2 20 24 35
19 136 -45 52 -33 103 -60 112 -60 24 0 132 111 132 136 0 11 -14 33 -30 49
l-30 29 -30 -22 c-16 -12 -32 -22 -36 -22 -4 0 -46 23 -94 50 -48 28 -98 50
-112 50 -15 0 -41 -18 -76 -53z"/>
<path d="M2000 2154 c-16 -41 -13 -44 49 -44 l58 0 -12 -57 c-7 -32 -20 -101
-29 -153 -10 -52 -24 -123 -32 -157 -8 -34 -14 -67 -14 -73 0 -6 32 -10 84
-10 l84 0 6 38 c7 36 61 329 72 385 5 26 8 27 65 27 46 0 59 3 59 15 0 8 4 15
8 15 4 0 22 -61 38 -135 33 -144 33 -149 -2 -312 l-6 -33 83 0 84 0 19 98 c15
79 27 112 66 177 75 127 130 226 130 236 0 5 -17 9 -39 9 -42 0 -35 9 -127
-168 -15 -29 -17 -25 -38 63 -10 39 -20 78 -22 88 -5 16 -27 17 -290 17 l-284
0 -10 -26z"/>
<path d="M2857 2173 c-5 -9 -14 -51 -62 -297 -19 -99 -35 -188 -35 -198 0 -16
9 -18 79 -18 90 0 84 -7 101 102 5 37 14 77 19 90 9 26 4 38 43 -104 l23 -88
83 0 c61 0 82 3 82 13 0 8 -16 58 -35 113 -19 54 -35 103 -35 109 0 5 14 18
30 27 34 20 69 87 70 133 0 43 -35 94 -75 111 -37 15 -280 21 -288 7z m211
-98 c4 -45 -21 -108 -51 -125 -14 -8 -29 -11 -33 -8 -6 6 10 119 22 156 2 8
15 12 31 10 23 -2 29 -9 31 -33z"/>
<path d="M3300 2113 c-6 -38 -25 -133 -40 -213 -16 -80 -32 -166 -35 -192 l-7
-48 156 0 c118 0 156 3 156 13 0 6 3 22 6 35 6 21 4 22 -65 22 l-71 0 1 28 c0
15 6 52 12 82 l12 55 60 3 c60 3 75 12 75 45 0 14 -9 17 -60 17 -68 0 -68 -1
-46 90 l12 55 77 3 77 3 0 34 0 35 -154 0 -154 0 -12 -67z"/>
<path d="M224 2125 c-68 -34 -97 -75 -102 -145 -4 -49 -1 -60 22 -87 16 -19
50 -41 84 -53 31 -12 65 -29 75 -37 37 -34 9 -103 -41 -103 -22 0 -28 13 -34
70 -3 24 -7 25 -69 28 l-66 3 -16 -61 -15 -61 26 -17 c21 -14 50 -17 152 -17
122 0 128 1 169 28 102 68 107 218 8 265 -23 11 -62 26 -86 33 -24 8 -49 21
-54 30 -26 41 32 109 68 79 8 -7 15 -28 15 -46 l0 -34 64 0 64 0 11 44 c6 25
11 52 11 61 0 27 -62 45 -153 45 -69 0 -92 -4 -133 -25z"/>
<path d="M796 2142 c-3 -5 -23 -97 -45 -204 -41 -203 -52 -238 -76 -238 -23 0
-33 31 -28 87 l6 53 -71 0 -70 0 -14 -62 c-14 -59 -13 -64 5 -85 34 -39 79
-53 166 -53 96 0 135 14 178 63 32 37 36 49 79 272 9 44 20 98 24 119 5 22 7
43 4 48 -7 11 -151 10 -158 0z"/>
<path d="M992 2033 c-22 -4 -23 -8 -20 -81 3 -72 4 -77 27 -80 29 -4 101 62
101 93 0 19 -60 77 -77 74 -4 -1 -18 -4 -31 -6z"/>
<path d="M1640 2032 c-34 -2 -53 -11 -77 -35 -42 -40 -41 -62 3 -108 35 -35
40 -37 84 -32 33 4 56 0 79 -12 31 -15 32 -17 14 -30 -10 -9 -43 -14 -78 -15
-57 0 -63 -2 -98 -38 -20 -21 -37 -45 -37 -53 0 -8 17 -32 38 -52 33 -33 44
-37 87 -37 35 1 62 8 89 25 l39 23 0 159 0 158 -49 25 c-36 19 -61 25 -94 22z"/>
<path d="M1138 1935 c-53 -51 -78 -82 -78 -97 0 -16 24 -48 73 -96 40 -39 75
-72 79 -72 4 0 50 27 103 60 93 58 145 74 160 50 11 -17 29 -10 58 25 l28 34
-32 35 c-25 29 -34 34 -49 26 -43 -23 -90 -5 -243 94 -21 14 -26 11 -99 -59z"/>
<path d="M982 1781 c-9 -5 -12 -29 -10 -81 3 -71 4 -74 31 -83 25 -8 33 -5 63
24 19 18 34 40 34 48 -1 21 -60 87 -85 94 -11 4 -26 3 -33 -2z"/>
<path d="M1297 1658 l-98 -61 -29 22 c-16 11 -33 21 -38 21 -14 0 -42 -46 -42
-67 0 -25 101 -123 125 -123 11 0 60 23 109 50 94 53 116 59 136 35 7 -8 20
-15 29 -15 23 0 61 41 61 66 0 26 -110 134 -135 134 -11 0 -64 -28 -118 -62z"/>
<path d="M1749 1584 c-21 -22 -30 -25 -79 -22 -51 3 -56 1 -87 -32 -18 -19
-33 -43 -33 -52 0 -9 16 -30 36 -46 28 -23 49 -31 88 -34 49 -3 53 -1 89 37
36 39 37 41 31 100 -4 33 -10 63 -13 68 -4 4 -18 -4 -32 -19z"/>
<path d="M986 1523 c18 -108 18 -107 53 -117 31 -9 36 -7 57 20 13 16 24 34
24 40 0 6 -16 29 -36 52 -29 34 -42 42 -70 42 -35 0 -35 0 -28 -37z"/>
<path d="M1862 1535 c-7 -14 -12 -28 -12 -31 0 -2 406 -3 903 -2 l902 3 3 28
3 27 -894 0 -894 0 -11 -25z"/>
<path d="M1330 1430 c-47 -28 -89 -50 -93 -50 -5 0 -22 9 -38 21 -34 24 -55
20 -71 -16 -10 -23 -7 -29 48 -80 33 -31 69 -54 81 -55 12 0 62 21 109 46 l87
47 33 -18 c39 -21 56 -16 81 21 l17 27 -59 53 c-39 34 -69 54 -85 54 -14 0
-63 -23 -110 -50z"/>
<path d="M1759 1390 c-30 -36 -37 -40 -79 -40 -42 0 -51 -4 -74 -34 -34 -45
-33 -60 8 -85 43 -27 126 -29 148 -3 47 54 60 91 53 147 -4 30 -11 55 -16 55
-4 0 -23 -18 -40 -40z"/>
<path d="M1960 1423 c-8 -3 -25 -15 -37 -26 -42 -38 -24 -90 38 -108 32 -10
39 -17 37 -33 -4 -28 -38 -34 -38 -7 0 18 -6 21 -39 21 -33 0 -39 -3 -44 -25
-6 -34 16 -45 88 -45 59 0 109 19 119 45 19 51 -3 87 -64 102 -38 10 -50 45
-17 51 12 2 17 -3 17 -18 0 -18 5 -21 38 -18 30 2 38 7 40 27 2 13 -2 28 -10
32 -14 9 -104 11 -128 2z"/>
<path d="M2166 1409 c-57 -45 -74 -133 -35 -183 18 -23 27 -26 83 -26 53 0 67
4 90 25 52 48 64 145 23 183 -32 31 -123 31 -161 1z m97 -22 c14 -36 -28 -157
-53 -157 -17 0 -11 83 10 128 19 43 34 53 43 29z"/>
<path d="M2400 1427 c0 -6 -41 -193 -46 -209 -5 -16 3 -18 80 -18 70 0 86 3
86 15 0 10 -11 15 -35 15 -21 0 -35 5 -35 13 0 10 8 45 35 165 5 20 2 22 -40
22 -25 0 -45 -1 -45 -3z"/>
<path d="M2556 1361 c-32 -138 -21 -161 73 -161 75 0 103 28 124 125 21 96 21
105 -2 105 -15 0 -21 -12 -30 -62 -23 -120 -38 -146 -76 -132 -19 8 -19 32 0
109 21 86 21 85 -29 85 l-44 0 -16 -69z"/>
<path d="M2790 1415 c0 -9 9 -15 25 -15 29 0 29 1 10 -87 -9 -37 -18 -78 -20
-90 -5 -21 -2 -23 39 -23 l44 0 11 50 c6 28 16 73 22 100 10 46 13 50 39 50
16 0 30 7 34 15 5 13 -10 15 -99 15 -87 0 -105 -3 -105 -15z"/>
<path d="M2992 1323 c-12 -60 -22 -112 -22 -116 0 -5 19 -7 42 -5 l43 3 22
100 c12 55 23 106 23 113 0 8 -15 12 -43 12 l-42 0 -23 -107z"/>
<path d="M3156 1409 c-57 -45 -74 -133 -35 -183 18 -23 27 -26 83 -26 53 0 67
4 90 25 52 48 64 145 23 183 -32 31 -123 31 -161 1z m97 -22 c14 -36 -28 -157
-53 -157 -17 0 -11 83 10 128 19 43 34 53 43 29z"/>
<path d="M3390 1418 c-1 -7 -11 -59 -24 -115 l-23 -103 22 0 c19 0 23 9 35 71
15 77 21 75 40 -13 l13 -58 48 0 47 0 22 98 c12 53 24 105 27 115 4 15 0 18
-18 15 -20 -3 -25 -13 -39 -78 l-16 -74 -13 59 c-21 100 -17 95 -72 95 -32 0
-49 -4 -49 -12z"/>
<path d="M1024 1338 c3 -13 9 -39 12 -59 10 -59 78 -80 108 -33 21 32 21 34
-32 78 -52 43 -98 50 -88 14z"/>
<path d="M1370 1240 c-41 -21 -81 -39 -88 -40 -7 0 -26 10 -42 22 -29 21 -30
21 -50 3 -11 -10 -20 -24 -20 -31 0 -11 86 -83 127 -108 7 -3 51 9 99 29 92
36 119 42 129 25 18 -30 94 11 82 44 -8 20 -122 96 -144 96 -10 -1 -52 -19
-93 -40z"/>
<path d="M1794 1230 c-28 -53 -31 -55 -74 -58 -46 -3 -100 -40 -100 -69 0 -18
69 -46 110 -44 69 3 73 7 108 97 18 47 18 51 2 89 l-16 39 -30 -54z"/>
<path d="M2057 1147 c-26 -58 -87 -147 -87 -129 0 7 -8 12 -18 12 -10 0 -25
11 -32 25 -7 14 -17 25 -20 25 -4 0 -16 -29 -26 -65 -16 -55 -23 -67 -44 -71
-14 -3 -45 -12 -69 -21 -32 -12 -40 -18 -30 -25 11 -7 9 -8 -4 -4 -10 3 -35 7
-55 7 -29 2 -31 3 -10 6 14 2 32 11 38 19 7 8 11 14 9 14 -3 0 -29 9 -59 20
-66 24 -100 25 -192 4 -66 -15 -73 -15 -99 0 -34 20 -59 21 -59 2 0 -13 -5
-13 -32 -3 -23 8 -28 12 -15 15 28 6 19 25 -24 55 -25 17 -51 27 -66 25 l-26
-3 27 -32 c15 -18 39 -38 54 -46 15 -8 49 -27 76 -42 39 -22 48 -25 43 -12 -8
22 -5 21 43 -3 22 -11 53 -20 69 -20 16 0 31 -4 33 -9 5 -15 278 -27 278 -12
0 6 12 11 28 11 21 0 24 -2 12 -10 -10 -8 5 -9 50 -5 84 8 89 10 100 37 7 18
9 19 9 6 3 -77 130 132 147 242 10 61 -19 53 -49 -13z m-90 -189 c-3 -7 -5 -2
-5 12 0 14 2 19 5 13 2 -7 2 -19 0 -25z m-52 -10 c-4 -18 -12 -37 -18 -43 -7
-7 -8 -4 -3 8 3 11 9 30 12 43 9 36 17 29 9 -8z m-310 -38 c-16 -4 -48 -8 -70
-8 l-40 1 35 7 c19 4 51 7 70 8 l35 0 -30 -8z"/>
<path d="M1094 1138 c20 -46 27 -53 55 -56 34 -4 61 11 61 33 0 21 -81 75
-111 75 l-28 0 23 -52z"/>
<path d="M1833 1100 l-31 -70 -44 0 c-34 0 -50 -6 -66 -23 -28 -30 -28 -33 9
-46 40 -14 104 -14 129 -1 25 14 64 131 55 170 -4 16 -10 32 -14 34 -4 3 -21
-26 -38 -64z"/>
<path d="M1412 1080 l-83 -29 -35 21 c-28 16 -37 18 -49 8 -28 -23 -15 -40 59
-77 l74 -37 87 26 c82 25 87 26 115 10 34 -19 63 -9 68 24 2 15 -12 27 -63 52
-36 17 -71 32 -78 31 -6 0 -49 -13 -95 -29z"/>
</g>
</svg>
